<mxfile host="app.diagrams.net" agent="Mozilla/5.0 (Windows NT 10.0; Win64; x64) AppleWebKit/537.36 (KHTML, like Gecko) Chrome/139.0.0.0 Safari/537.36" version="28.2.1">
  <diagram id="X0FwTgHiUu0nge0MYw0U" name="ページ1">
    <mxGraphModel dx="758" dy="404" grid="1" gridSize="10" guides="1" tooltips="1" connect="1" arrows="1" fold="1" page="1" pageScale="1" pageWidth="827" pageHeight="1169" math="0" shadow="0">
      <root>
        <mxCell id="0" />
        <mxCell id="1" parent="0" />
        <mxCell id="whykMeGYxiMPx9rubYCB-2" value="学生" style="shape=umlActor;verticalLabelPosition=bottom;verticalAlign=top;html=1;" vertex="1" parent="1">
          <mxGeometry x="150" y="140" width="30" height="60" as="geometry" />
        </mxCell>
        <mxCell id="whykMeGYxiMPx9rubYCB-3" value="メニュー画面" style="shape=umlBoundary;whiteSpace=wrap;html=1;" vertex="1" parent="1">
          <mxGeometry x="280" y="100" width="90" height="70" as="geometry" />
        </mxCell>
        <mxCell id="whykMeGYxiMPx9rubYCB-4" value="学生登録画面" style="shape=umlBoundary;whiteSpace=wrap;html=1;" vertex="1" parent="1">
          <mxGeometry x="280" y="190" width="90" height="70" as="geometry" />
        </mxCell>
        <mxCell id="whykMeGYxiMPx9rubYCB-6" value="" style="endArrow=classic;html=1;rounded=0;" edge="1" parent="1" source="whykMeGYxiMPx9rubYCB-2">
          <mxGeometry width="50" height="50" relative="1" as="geometry">
            <mxPoint x="350" y="270" as="sourcePoint" />
            <mxPoint x="278" y="140" as="targetPoint" />
          </mxGeometry>
        </mxCell>
        <mxCell id="whykMeGYxiMPx9rubYCB-7" value="" style="endArrow=classic;html=1;rounded=0;entryX=-0.026;entryY=0.489;entryDx=0;entryDy=0;entryPerimeter=0;" edge="1" parent="1" source="whykMeGYxiMPx9rubYCB-3" target="whykMeGYxiMPx9rubYCB-10">
          <mxGeometry width="50" height="50" relative="1" as="geometry">
            <mxPoint x="130" y="292" as="sourcePoint" />
            <mxPoint x="238" y="260" as="targetPoint" />
          </mxGeometry>
        </mxCell>
        <mxCell id="whykMeGYxiMPx9rubYCB-9" value="①メニュー画面を&lt;br&gt;クリックする" style="text;html=1;align=center;verticalAlign=middle;resizable=0;points=[];autosize=1;strokeColor=none;fillColor=none;" vertex="1" parent="1">
          <mxGeometry x="155" y="90" width="120" height="40" as="geometry" />
        </mxCell>
        <mxCell id="whykMeGYxiMPx9rubYCB-10" value="表示（する）" style="ellipse;shape=umlControl;whiteSpace=wrap;html=1;" vertex="1" parent="1">
          <mxGeometry x="460" y="130" width="70" height="80" as="geometry" />
        </mxCell>
        <mxCell id="whykMeGYxiMPx9rubYCB-12" value="" style="endArrow=classic;html=1;rounded=0;entryX=1.017;entryY=0.471;entryDx=0;entryDy=0;entryPerimeter=0;exitX=0;exitY=0.75;exitDx=0;exitDy=0;exitPerimeter=0;" edge="1" parent="1" source="whykMeGYxiMPx9rubYCB-10" target="whykMeGYxiMPx9rubYCB-4">
          <mxGeometry width="50" height="50" relative="1" as="geometry">
            <mxPoint x="410" y="150" as="sourcePoint" />
            <mxPoint x="498" y="172" as="targetPoint" />
          </mxGeometry>
        </mxCell>
        <mxCell id="whykMeGYxiMPx9rubYCB-13" value="" style="endArrow=classic;html=1;rounded=0;entryX=0.893;entryY=0.839;entryDx=0;entryDy=0;entryPerimeter=0;exitX=0.003;exitY=0.533;exitDx=0;exitDy=0;exitPerimeter=0;" edge="1" parent="1" source="whykMeGYxiMPx9rubYCB-4" target="whykMeGYxiMPx9rubYCB-2">
          <mxGeometry width="50" height="50" relative="1" as="geometry">
            <mxPoint x="420" y="210" as="sourcePoint" />
            <mxPoint x="508" y="232" as="targetPoint" />
          </mxGeometry>
        </mxCell>
        <mxCell id="whykMeGYxiMPx9rubYCB-14" value="学生登録情報" style="ellipse;shape=umlControl;whiteSpace=wrap;html=1;" vertex="1" parent="1">
          <mxGeometry x="460" y="230" width="70" height="80" as="geometry" />
        </mxCell>
        <mxCell id="whykMeGYxiMPx9rubYCB-15" value="" style="endArrow=classic;html=1;rounded=0;entryX=0;entryY=0.5;entryDx=0;entryDy=0;entryPerimeter=0;exitX=0.93;exitY=0.682;exitDx=0;exitDy=0;exitPerimeter=0;" edge="1" parent="1" source="whykMeGYxiMPx9rubYCB-4" target="whykMeGYxiMPx9rubYCB-14">
          <mxGeometry width="50" height="50" relative="1" as="geometry">
            <mxPoint x="508" y="200" as="sourcePoint" />
            <mxPoint x="420" y="233" as="targetPoint" />
          </mxGeometry>
        </mxCell>
        <mxCell id="whykMeGYxiMPx9rubYCB-16" value="学生オブジェクト&lt;br&gt;（データ）" style="ellipse;shape=umlEntity;whiteSpace=wrap;html=1;" vertex="1" parent="1">
          <mxGeometry x="600" y="220" width="100" height="100" as="geometry" />
        </mxCell>
        <mxCell id="whykMeGYxiMPx9rubYCB-17" value="" style="endArrow=classic;startArrow=classic;html=1;rounded=0;exitX=1.035;exitY=0.542;exitDx=0;exitDy=0;exitPerimeter=0;" edge="1" parent="1" source="whykMeGYxiMPx9rubYCB-14">
          <mxGeometry width="50" height="50" relative="1" as="geometry">
            <mxPoint x="350" y="270" as="sourcePoint" />
            <mxPoint x="600" y="273" as="targetPoint" />
          </mxGeometry>
        </mxCell>
        <mxCell id="whykMeGYxiMPx9rubYCB-18" value="②学生情報を入力する" style="text;html=1;align=center;verticalAlign=middle;resizable=0;points=[];autosize=1;strokeColor=none;fillColor=none;" vertex="1" parent="1">
          <mxGeometry x="165" y="240" width="140" height="30" as="geometry" />
        </mxCell>
        <mxCell id="whykMeGYxiMPx9rubYCB-20" value="③登録の成功、失敗&lt;br&gt;すでに存在する学生かもしれない" style="text;html=1;align=center;verticalAlign=middle;resizable=0;points=[];autosize=1;strokeColor=none;fillColor=none;" vertex="1" parent="1">
          <mxGeometry x="470" y="330" width="200" height="40" as="geometry" />
        </mxCell>
        <mxCell id="whykMeGYxiMPx9rubYCB-21" value="&lt;font style=&quot;font-size: 16px;&quot;&gt;①境界オブジェクト&lt;/font&gt;&lt;div&gt;&lt;font style=&quot;font-size: 16px;&quot;&gt;②制御オブジェクト&lt;/font&gt;&lt;/div&gt;&lt;div&gt;&lt;font style=&quot;font-size: 16px;&quot;&gt;③実態オブジェクト&lt;/font&gt;&lt;/div&gt;" style="text;html=1;align=center;verticalAlign=middle;resizable=0;points=[];autosize=1;strokeColor=none;fillColor=none;" vertex="1" parent="1">
          <mxGeometry x="100" y="300" width="170" height="70" as="geometry" />
        </mxCell>
      </root>
    </mxGraphModel>
  </diagram>
</mxfile>
